<?xml version="1.0" encoding="UTF-8" standalone="no"?>
<!-- Created with Inkscape (http://www.inkscape.org/) -->

<svg
   width="210mm"
   height="297mm"
   viewBox="0 0 210 297"
   version="1.1"
   id="svg1"
   xml:space="preserve"
   sodipodi:docname="environment.svg"
   inkscape:version="1.4 (e7c3feb100, 2024-10-09)"
   xmlns:inkscape="http://www.inkscape.org/namespaces/inkscape"
   xmlns:sodipodi="http://sodipodi.sourceforge.net/DTD/sodipodi-0.dtd"
   xmlns="http://www.w3.org/2000/svg"
   xmlns:svg="http://www.w3.org/2000/svg"><sodipodi:namedview
     id="namedview1"
     pagecolor="#ffffff"
     bordercolor="#000000"
     borderopacity="0.25"
     inkscape:showpageshadow="2"
     inkscape:pageopacity="0.0"
     inkscape:pagecheckerboard="0"
     inkscape:deskcolor="#d1d1d1"
     inkscape:document-units="mm"
     showguides="true"
     inkscape:zoom="0.13716686"
     inkscape:cx="1749.6938"
     inkscape:cy="1782.5005"
     inkscape:window-width="1920"
     inkscape:window-height="1054"
     inkscape:window-x="0"
     inkscape:window-y="0"
     inkscape:window-maximized="1"
     inkscape:current-layer="layer1"><sodipodi:guide
       position="285.20337,152.59186"
       orientation="0,-1"
       id="guide2"
       inkscape:locked="false" /><sodipodi:guide
       position="43.058082,36.062331"
       orientation="0,-1"
       id="guide3"
       inkscape:locked="false" /></sodipodi:namedview><defs
     id="defs1" /><g
     inkscape:label="Layer 1"
     inkscape:groupmode="layer"
     id="layer1"><g
       id="g2"
       inkscape:label="mountain1"
       transform="translate(-22.164179,-10.911596)"><path
         style="fill:#424242;fill-opacity:1;stroke-width:0.264583;stroke-linecap:round;stroke-linejoin:round"
         d="M 22.164179,155.31974 78.768079,10.911596 135.37198,155.31974 Z"
         id="path1"
         sodipodi:nodetypes="cccc" /><path
         style="fill:#f6f6f6;fill-opacity:1;stroke-width:0.264583;stroke-linecap:round;stroke-linejoin:round"
         d="m 60.168596,58.36268 7.517397,-5.339144 4.262342,8.183695 3.409874,-6.649251 3.921355,4.091847 5.967277,-4.603329 4.60333,7.331228 5.841224,-7.291279 -16.923316,-43.174851 z"
         id="path2" /></g><g
       id="g3"
       inkscape:label="mountain2"
       transform="translate(-38.531573)"><path
         style="fill:#424242;fill-opacity:1;stroke-width:0.264583;stroke-linecap:round;stroke-linejoin:round"
         d="M 161.41225,144.40814 228.59948,0 295.78671,144.40814 Z"
         id="path1-5"
         sodipodi:nodetypes="cccc" /><path
         style="fill:#f6f6f6;fill-opacity:1;stroke-width:0.264583;stroke-linecap:round;stroke-linejoin:round"
         d="m 207.95923,44.362896 4.66629,6.882142 7.27878,-6.201476 5.93803,2.575153 4.23309,-3.256087 7.31912,15.79153 2.88982,-19.453165 9.25918,4.314891 L 228.59948,0 Z"
         id="path2-3"
         sodipodi:nodetypes="cccccccccc" /></g><g
       id="g4"
       inkscape:label="tree1"><path
         id="path8-9"
         style="fill:#008200;stroke-width:0.264584;stroke-linecap:round;stroke-linejoin:round"
         d="M 38.446232 179.08313 A 8.0132027 7.3738518 0 0 0 30.433285 186.45684 A 8.0132027 7.3738518 0 0 0 30.642574 188.04744 A 28.391232 15.551885 0 0 0 15.792834 201.69208 A 28.391232 15.551885 0 0 0 20.062858 209.85024 A 6.5262589 5.7223716 0 0 0 19.197278 212.67022 A 6.5262589 5.7223716 0 0 0 25.723494 218.39287 A 6.5262589 5.7223716 0 0 0 31.358809 215.53051 A 28.391232 15.551885 0 0 0 35.892383 216.53872 A 6.5262589 5.7223716 0 0 0 41.209888 218.96545 A 6.5262589 5.7223716 0 0 0 45.888672 217.21258 A 28.391232 15.551885 0 0 0 49.082792 217.00949 A 6.5262589 5.7223716 0 0 0 55.410055 221.38287 A 6.5262589 5.7223716 0 0 0 61.270162 218.16084 A 6.6417255 5.3685617 0 0 0 63.651412 218.5324 A 6.6417255 5.3685617 0 0 0 70.292867 213.16373 A 6.6417255 5.3685617 0 0 0 68.620101 209.60736 A 28.391232 15.551885 0 0 0 72.575415 201.69208 A 28.391232 15.551885 0 0 0 46.44161 186.22171 A 8.0132027 7.3738518 0 0 0 38.446232 179.08313 z " /><path
         style="fill:#844e08;fill-opacity:1;stroke-width:0.264583;stroke-linecap:round;stroke-linejoin:round"
         d="m 43.058083,260.93767 h 7.586966 c 0,0 -1.99607,-30.47816 -1.704935,-33.41676 0.291135,-2.9386 1.308888,-4.42349 2.592715,-5.60133 1.283827,-1.17783 7.341582,-3.26254 9.938569,-3.09385 3.797129,0.24665 1.721562,2.06765 8.0132,2.30166 0,0 -2.709643,-0.66938 -3.836105,-1.23608 -1.126462,-0.5667 -2.983635,-1.91805 -2.983635,-1.91805 3.59114,-1.8447 4.925655,-0.36926 8.09845,-0.25574 1.337648,-0.0338 3.83611,-0.93771 3.83611,-0.93771 0,0 -3.008593,-0.0674 -4.43284,-0.25575 -1.424247,-0.18839 -2.452902,-0.52134 -4.027915,-0.49016 -1.575013,0.0312 -3.453833,0.35058 -5.178745,0.9164 -2.609103,1.1301 -5.285819,1.79991 -8.098449,2.13117 0,0 2.580937,-2.66118 3.836109,-3.49512 1.255172,-0.83394 2.158068,-0.67576 3.49512,-1.61969 1.337052,-0.94393 2.239891,-3.35441 4.027908,-4.39021 1.788017,-1.0358 5.027404,-0.85261 6.22302,-1.61969 1.195617,-0.76708 1.924628,-2.6714 3.303322,-3.70824 1.378694,-1.03684 4.94431,-2.13117 4.94431,-2.13117 0,0 -4.146071,0.65938 -5.671943,1.46988 -1.525872,0.8105 -1.548791,2.13369 -3.193727,3.0482 -1.644936,0.91451 -4.460629,0.64088 -6.22302,1.53445 -1.762391,0.89357 -4.17709,3.49511 -4.17709,3.49511 0,0 -0.94494,-2.56409 0.0853,-4.43283 1.03024,-1.86874 5.3289,-2.74293 6.99024,-4.60333 1.66134,-1.8604 1.618348,-4.52461 2.98364,-5.88203 1.365292,-1.35742 4.43284,-2.21642 4.43284,-2.21642 0,0 -3.340529,0.41371 -4.899555,1.54995 -1.559026,1.13624 -2.187184,4.11984 -3.454645,5.35504 -1.267461,1.2352 -3.32462,2.04593 -3.32462,2.04593 0,0 -1.256339,-2.12023 -1.36395,-3.32463 -0.107611,-1.2044 -0.01412,-2.32332 0.76722,-3.58037 0.781338,-1.25705 3.166749,-2.02268 4.152129,-3.42022 0.98538,-1.39754 1.559411,-4.59298 1.559411,-4.59298 0,0 -1.07927,3.0416 -2.21642,4.34759 -1.13715,1.30599 -3.608704,1.79913 -4.51808,3.15413 -0.909376,1.355 -0.904239,2.80063 -0.93772,4.1771 -0.03348,1.37647 1.012383,2.6432 0.68198,3.92135 -0.330403,1.27815 -1.934406,1.65754 -2.47216,3.06889 -0.537754,1.41135 0.45351,3.95107 -0.25574,5.11481 -0.70925,1.16374 -1.589284,0.68345 -2.64265,1.53444 -1.053366,0.85099 -2.356106,2.42679 -3.40988,3.75086 -1.053774,1.32407 -2.898391,4.1771 -2.898391,4.1771 0,0 -1.281104,-7.01142 -0.426233,-9.4624 0.854871,-2.45098 2.801827,-3.60269 3.765487,-5.14584 0.96366,-1.54315 1.147394,-2.4856 2.116544,-3.89033 0.96915,-1.40473 2.851501,-2.51482 3.452495,-3.92135 0.600994,-1.40653 0.03229,-2.10415 0.468858,-3.58037 0.436566,-1.47622 2.98364,-4.60333 2.98364,-4.60333 0,0 -2.804282,2.39644 -3.49512,3.75086 -0.690838,1.35442 -0.0054,2.92736 -0.63935,4.02792 -0.633927,1.10056 -2.855769,2.77052 -2.855769,2.77052 0,0 0.09417,-2.98267 0.511479,-3.98529 0.417306,-1.00262 1.17495,-1.56544 1.449203,-3.0902 0.274253,-1.52476 -1.449203,-5.34924 -1.449203,-5.34924 0,0 1.373309,3.66662 0.68197,4.43284 -0.691339,0.76622 -0.985748,0.23388 -1.704934,-0.0853 -0.719186,-0.31918 -2.131172,-2.13117 -2.131172,-2.13117 0,0 1.648853,2.3915 2.386912,2.8984 0.738059,0.5069 1.274704,-0.16835 1.534444,0.51148 0.25974,0.67983 -0.923845,1.21151 -1.36395,2.38691 -0.440105,1.1754 -0.468328,3.1462 -0.937716,4.68857 -0.469388,1.54237 -1.060699,3.26011 -1.87543,4.51809 -0.814731,1.25798 -2.813146,2.98364 -2.813146,2.98364 0,0 -0.461768,-2.02404 -0.627758,-3.13774 -0.165987,-1.1137 -0.302405,-2.40826 -0.194574,-3.84305 0.107831,-1.43479 1.866253,-3.08049 2.356772,-4.95377 0.490519,-1.87328 -0.07915,-4.19927 0.511481,-5.79679 0.590626,-1.59752 1.321001,-2.80078 2.346431,-3.82147 1.02543,-1.02069 2.57936,-1.24634 3.555403,-2.68314 0.976043,-1.4368 1.599887,-5.51519 1.599887,-5.51519 0,0 -0.982307,3.52782 -2.04592,4.77382 -1.063613,1.246 -2.954966,1.6049 -3.921357,2.47216 -0.966391,0.86726 -1.960678,2.47216 -1.960678,2.47216 0,0 -2.874464,-5.39996 -2.652107,-5.96211 0.222358,-0.56216 1.699463,-0.66705 2.581487,-1.56458 0.882024,-0.89753 1.946051,-3.72589 1.946051,-3.72589 0,0 -1.587624,2.51659 -2.472159,3.15413 -0.884535,0.63754 -2.386911,0.85247 -2.386911,0.85247 l -0.596728,-7.07549 c 0,0 -0.498798,5.40433 -0.340988,7.16073 0.15781,1.7564 0.333043,1.99094 0.767222,3.32463 0.434179,1.33369 1.694343,3.21198 1.960677,4.60333 0.266334,1.39135 -0.08525,3.49512 -0.08525,3.49512 0,0 -1.478184,-2.2251 -2.216418,-2.64265 -0.738234,-0.41755 -0.984702,0.23297 -1.61969,-0.25574 -0.634988,-0.48871 -0.503659,-2.25011 -1.278703,-2.89839 -0.775044,-0.64828 -2.813146,-0.68198 -2.813146,-0.68198 0,0 1.641378,0.44633 2.301665,1.21476 0.660287,0.76843 0.515653,2.17824 1.214768,2.74922 0.699115,0.57098 0.80188,0.15995 1.619689,0.61804 0.817809,0.45809 2.412355,2.16569 2.706588,3.17544 0.294233,1.00975 0.04589,1.34456 -0.426235,2.47216 -0.472122,1.1276 -2.323904,2.6207 -2.813145,3.92136 -0.489241,1.30066 -0.340988,3.49512 -0.340988,3.49512 0,0 -1.07545,-1.35533 -1.363949,-2.55741 -0.288499,-1.20208 0.02203,-2.33833 -0.298361,-3.36725 -0.320386,-1.02891 -0.735139,-1.56823 -1.065586,-2.1738 -0.330447,-0.60557 0.02153,-1.52586 -0.447545,-2.32297 -0.469071,-0.79711 -2.365601,-2.10986 -2.365601,-2.10986 0,0 1.543121,1.412 1.875431,2.30167 0.33231,0.88967 0.06128,1.73571 0.340991,2.47215 0.279714,0.73644 0.783513,1.32602 0.895092,1.85413 0.111579,0.52811 -0.213118,1.12951 -0.213118,1.12951 -1.458697,-2.22635 -4.928465,-3.3623 -6.137773,-5.45579 -0.824472,-1.42728 -0.722462,-2.28384 -0.340987,-4.1771 0.381475,-1.89326 2.704584,-3.95306 3.078342,-6.47359 0.373758,-2.52053 -1.117665,-7.84788 -1.117665,-7.84788 l 0.511482,6.30827 c 0,0 -0.725456,-0.20392 -1.278703,-0.76722 -0.553247,-0.5633 -1.61969,-2.81315 -1.61969,-2.81315 0,0 0.771088,2.68007 1.278703,3.40987 0.507615,0.7298 1.204147,0.17281 1.459538,1.34932 0.255391,1.17648 -2.482501,4.78846 -2.482501,4.78846 0,0 0.02004,-1.56837 -0.471886,-2.64694 -0.491929,-1.07857 -1.530842,-2.07668 -2.717557,-2.81315 -1.186715,-0.73647 -3.971291,-1.87114 -3.971291,-1.87114 0,0 2.266609,1.35644 3.23938,2.21642 0.972771,0.85998 2.096336,1.86605 2.557405,2.89839 0.461069,1.03234 0.335612,1.62594 0.340987,2.89839 0.0054,1.27245 -0.387438,3.32969 -0.240227,4.74886 0.147211,1.41917 1.405206,2.57695 2.627139,3.77583 1.221933,1.19888 2.044472,1.58435 2.898393,2.47215 0.853921,0.8878 2.216417,2.81315 2.216417,2.81315 0,0 -2.501376,-0.87855 -3.921354,-1.61969 -1.419978,-0.74114 -3.271039,-2.39917 -4.518083,-2.89839 -1.247044,-0.49922 -1.556975,0.19624 -2.642652,-0.51148 -1.023284,-1.74308 -3.009847,-3.0149 -3.276313,-3.19624 -0.266466,-0.18134 -0.533038,-0.2569 -0.426234,-0.76722 0.106804,-0.51032 1.265413,-0.604 1.790184,-1.36395 0.524771,-0.75995 0.937715,-3.15414 0.937715,-3.15414 0,0 -0.972787,2.17577 -1.534443,2.81315 -0.561656,0.63738 -1.534443,1.10821 -1.534443,1.10821 l -1.022962,-4.26234 c 0,0 0.184384,3.61438 0.511481,4.68857 0.327097,1.07419 0.478672,1.34772 0.982924,1.62442 0.504252,0.2767 1.94031,1.48091 2.679585,2.42901 0,0 -2.829655,-0.82886 -4.222305,-1.36867 -1.39265,-0.53981 -2.362117,-1.36712 -4.177095,-1.70494 -1.814978,-0.33782 -6.564007,0.12787 -6.564007,0.12787 l 5.796785,0.38361 c 0,0 -0.674863,0.85885 -1.491819,1.23608 -0.816956,0.37723 -3.409874,0.59673 -3.409874,0.59673 0,0 3.199888,0.20017 4.177095,-0.17049 0.977207,-0.37066 0.509525,-1.19603 1.61969,-1.32133 1.110165,-0.1253 2.804537,1.52723 4.134472,2.04593 1.329935,0.5187 3.793485,1.1082 3.793485,1.1082 0,0 -2.414038,-0.15882 -3.793485,0.38362 -1.379447,0.54244 -4.049225,3.06888 -4.049225,3.06888 0,0 2.695368,-1.67023 4.432836,-2.17379 1.737468,-0.50356 4.579249,-0.81512 5.882032,-0.63935 1.302783,0.17577 0.846778,0.14905 1.832807,0.72459 0.986029,0.57554 2.298154,2.2065 3.793485,3.06889 1.495331,0.86239 3.841004,0.83327 5.11481,1.96068 1.273806,1.12741 1.804214,2.66916 2.216418,4.17709 0.412204,1.50793 0.213117,4.64596 0.213117,4.64596 0,0 -2.741271,-3.94117 -3.963978,-4.98694 -1.222707,-1.04577 -1.899536,-1.2333 -2.855769,-1.61969 -0.956233,-0.38639 -1.760306,-0.13319 -2.813146,-0.7246 -1.05284,-0.59141 -3.11151,-3.02627 -3.11151,-3.02627 0,0 1.353747,2.6088 2.429535,3.4525 1.075788,0.8437 2.631459,0.7453 3.708238,1.4492 1.076779,0.7039 2.642652,2.64265 2.642652,2.64265 0,0 -1.20149,0.44903 -2.045924,0.34099 -0.844434,-0.10804 -1.636243,-0.91171 -2.770522,-1.23608 -1.134279,-0.32437 -4.006602,-0.55411 -4.006602,-0.55411 0,0 2.776182,0.50271 3.665614,0.93772 0.889432,0.43501 1.153535,1.04205 1.704937,1.32132 0.551402,0.27927 0.755696,0.33416 1.49182,0.42624 0.736124,0.0921 1.674802,-0.78305 2.898392,-0.0853 1.22359,0.69775 2.31396,3.2284 2.685276,4.85907 0.371316,1.63067 -0.255741,4.47546 -0.255741,4.47546 0,0 -2.303111,-3.33368 -3.750861,-4.7312 -1.44775,-1.39752 -3.487855,-2.66383 -4.85907,-3.58037 -1.371215,-0.91654 -3.059622,-1.34951 -4.731199,-1.74756 -0.745235,-0.55464 -1.043208,-2.62949 -1.790184,-3.49512 -0.746976,-0.86563 -1.471971,-1.13708 -2.386912,-1.70493 -0.914941,-0.56785 -3.11151,-1.66232 -3.11151,-1.66232 0,0 1.536398,1.60396 2.301665,2.1738 0.765267,0.56984 1.549179,0.52618 2.216418,1.2787 0.667239,0.75252 1.36395,3.19676 1.36395,3.19676 0,0 -3.264491,-0.27179 -4.816447,-0.55411 -1.114526,-0.62473 -4.608643,-1.15176 -5.231578,-1.15136 -0.484009,-0.24978 -0.684603,-1.34554 -1.537104,-1.9892 -0.852501,-0.64366 -3.616717,-1.44668 -3.616717,-1.44668 0,0 2.444595,1.21076 3.104348,1.80835 0.659753,0.59759 1.024737,1.41655 1.024737,1.41655 0,0 -4.183296,-0.18934 -5.605912,0.1507 -1.422616,0.34004 -2.863234,1.35627 -2.863234,1.35627 0,0 1.513245,-0.64179 3.013931,-0.81376 1.500686,-0.17197 5.110479,0.1239 5.937444,0.21097 0.826965,0.0871 1.075416,0.10176 1.949026,0.31754 0.87361,0.21578 2.350849,0.96138 3.295214,1.18943 0,0 -0.954518,0.86348 -1.567244,1.14529 -0.612726,0.28181 -1.440274,0.48359 -2.049473,0.48223 -0.609199,-0.001 -0.683689,-0.28634 -1.506966,-0.36167 -0.823277,-0.0753 -3.405742,0.18083 -3.405742,0.18083 0,0 2.220931,0.35175 3.04407,0.51237 0.823139,0.16062 1.220774,0.39115 1.898777,0.42195 0.678003,0.0308 1.157043,0.0227 2.109752,-0.27125 0.952709,-0.29393 1.809078,-1.49833 3.435881,-1.74808 1.626803,-0.24975 4.266264,0.388 5.937444,0.9946 1.67118,0.6066 2.698814,1.37291 4.008528,2.35086 1.309714,0.97795 2.477713,1.82619 3.767414,3.5263 1.289701,1.70011 2.949317,5.17127 3.5263,6.78135 0.576983,1.61008 0.367097,0.12318 0.542507,2.56184 -0.997056,7.93663 -0.01336,14.93408 -0.241115,22.84559 -0.150314,3.40912 -1.281616,9.6116 -1.281616,9.6116 z"
         id="path3"
         sodipodi:nodetypes="zczzzczczczzzczzzzzczzzczzzczzczzzczzzzzzzzczzzzzczzczzczzczzzzzczzzzzzczzczzczcczzzczzzczzzzzzczzzzczzzczzzcczczzczzczzzzzzczzczzzczcczzczzcczczzzczczzzzzzczzzczzczzczzzzzczzczzczzczczczczczzzczzzczzzzzzzzzzz" /><path
         id="path6"
         style="fill:#00aa00;stroke-width:0.264583;stroke-linecap:round;stroke-linejoin:round"
         d="M 46.997648 171.74042 A 8.9509182 6.904994 0 0 0 39.082369 175.44924 A 6.5640068 3.6656141 0 0 0 37.082491 175.26734 A 6.5640068 3.6656141 0 0 0 31.011027 177.54265 A 4.2623425 3.4951205 0 0 0 29.802315 177.39847 A 4.2623425 3.4951205 0 0 0 25.539526 180.89387 A 4.2623425 3.4951205 0 0 0 26.875362 183.42395 A 5.8394084 5.9246554 0 0 0 23.994918 185.81036 A 5.0566311 5.9242129 0 0 0 21.162533 184.79182 A 5.0566311 5.9242129 0 0 0 16.105994 190.71601 A 5.0566311 5.9242129 0 0 0 16.259473 192.11075 A 7.2459812 5.5836682 0 0 0 9.9740682 197.64478 A 7.2459812 5.5836682 0 0 0 15.323096 203.03257 A 5.9928284 5.9687591 0 0 0 14.492139 206.04014 A 5.9928284 5.9687591 0 0 0 14.579989 207.01217 A 6.3313074 5.9988656 0 0 0 9.001001 212.96013 A 6.3313074 5.9988656 0 0 0 15.332397 218.95873 A 6.3313074 5.9988656 0 0 0 21.663277 212.96013 A 6.3313074 5.9988656 0 0 0 21.55424 211.9111 A 5.9928284 5.9687591 0 0 0 25.32817 209.5531 A 6.5262589 5.7223716 0 0 0 31.346407 213.09087 A 6.5262589 5.7223716 0 0 0 36.734192 210.58146 A 11.694053 8.7404003 0 0 0 47.499426 215.91809 A 11.694053 8.7404003 0 0 0 59.193803 207.17753 A 11.694053 8.7404003 0 0 0 58.914233 205.36163 A 7.4895105 6.6800427 0 0 0 60.37926 206.09078 A 10.669316 8.6801214 0 0 0 60.278491 207.238 A 10.669316 8.6801214 0 0 0 66.327734 215.04992 A 5.9073043 4.8825684 0 0 0 64.255509 218.76132 A 5.9073043 4.8825684 0 0 0 70.162642 223.64371 A 5.9073043 4.8825684 0 0 0 76.069775 218.76132 A 5.9073043 4.8825684 0 0 0 74.448686 215.41631 A 10.669316 8.6801214 0 0 0 81.61724 207.238 A 10.669316 8.6801214 0 0 0 73.635299 198.85298 A 8.31845 5.9073048 0 0 0 77.036125 194.0972 A 8.31845 5.9073048 0 0 0 68.717769 188.19006 A 8.31845 5.9073048 0 0 0 64.20745 189.14763 A 7.4164753 7.0583525 0 0 0 65.469389 185.22435 A 7.4164753 7.0583525 0 0 0 58.053304 178.16587 A 7.4164753 7.0583525 0 0 0 55.93302 178.46249 A 8.9509182 6.904994 0 0 0 46.997648 171.74042 z M 33.789669 182.10361 A 6.5640068 3.6656141 0 0 0 37.082491 182.59867 A 6.5640068 3.6656141 0 0 0 39.460124 182.34494 A 8.9509182 6.904994 0 0 0 41.222807 183.9035 A 7.2033582 5.3705511 0 0 0 39.298893 187.54307 A 7.2033582 5.3705511 0 0 0 39.806873 189.50988 A 7.9705801 5.8820319 0 0 0 39.682332 189.50368 A 7.9705801 5.8820319 0 0 0 34.425806 190.98111 A 5.8394084 5.9246554 0 0 0 34.780823 188.94971 A 5.8394084 5.9246554 0 0 0 31.970658 183.89472 A 4.2623425 3.4951205 0 0 0 33.789669 182.10361 z M 52.782308 190.16462 A 7.4164753 7.0583525 0 0 0 58.053304 192.28284 A 7.4164753 7.0583525 0 0 0 61.183346 191.61931 A 8.31845 5.9073048 0 0 0 60.429903 193.76285 A 7.4895105 6.6800427 0 0 0 55.763005 199.9356 A 7.4895105 6.6800427 0 0 0 55.892196 201.10245 A 11.694053 8.7404003 0 0 0 47.499426 198.43698 A 11.694053 8.7404003 0 0 0 46.438509 198.48918 A 7.9705801 5.8820319 0 0 0 47.652905 195.38601 A 7.9705801 5.8820319 0 0 0 46.886027 192.8952 A 7.2033582 5.3705511 0 0 0 52.782308 190.16462 z M 25.507487 193.72358 A 5.8394084 5.9246554 0 0 0 28.941386 194.87441 A 5.8394084 5.9246554 0 0 0 28.951721 194.87441 A 5.4984212 4.8164468 0 0 0 27.790552 197.81532 A 5.4984212 4.8164468 0 0 0 30.14648 201.75616 A 6.5262589 5.7223716 0 0 0 26.107967 203.9798 A 5.9928284 5.9687591 0 0 0 23.245093 200.74382 A 7.2459812 5.5836682 0 0 0 24.46569 197.64478 A 7.2459812 5.5836682 0 0 0 23.976831 195.62889 A 5.0566311 5.9242129 0 0 0 25.507487 193.72358 z M 37.399784 201.01254 A 7.9705801 5.8820319 0 0 0 38.954211 201.23268 A 11.694053 8.7404003 0 0 0 36.619987 203.99943 A 6.5262589 5.7223716 0 0 0 34.710543 202.46671 A 5.4984212 4.8164468 0 0 0 37.399784 201.01254 z " /></g><g
       id="g5"
       inkscape:label="tree2"><path
         id="path39"
         style="fill:#008200;stroke-width:0.264583;stroke-linecap:round;stroke-linejoin:round"
         d="M 131.16615 172.39671 A 6.5100908 5.9073048 0 0 0 124.65596 178.30436 A 6.5100908 5.9073048 0 0 0 131.16615 184.21149 A 6.5100908 5.9073048 0 0 0 137.67635 178.30436 A 6.5100908 5.9073048 0 0 0 131.16615 172.39671 z M 107.17537 174.08446 A 6.389534 8.6801214 0 0 0 100.7861 182.76455 A 6.389534 8.6801214 0 0 0 102.32812 188.39264 A 9.7651367 7.5951061 0 0 0 100.9065 188.31047 A 9.7651367 7.5951061 0 0 0 91.141207 195.90535 A 9.7651367 7.5951061 0 0 0 93.829932 201.12364 A 12.537952 10.48848 0 0 0 91.864677 206.75586 A 12.537952 10.48848 0 0 0 104.40241 217.2441 A 12.537952 10.48848 0 0 0 106.45655 217.08804 A 8.1978922 5.6661901 0 0 0 114.0473 220.61961 A 8.1978922 5.6661901 0 0 0 118.55039 219.64602 A 25.075905 15.913555 0 0 0 122.72739 219.89666 A 25.075905 15.913555 0 0 0 123.78934 219.85221 A 5.9073048 5.4250755 0 0 0 129.358 223.51297 A 5.9073048 5.4250755 0 0 0 135.26513 218.08798 A 5.9073048 5.4250755 0 0 0 135.2119 217.78102 A 25.075905 15.913555 0 0 0 147.80338 203.9829 A 25.075905 15.913555 0 0 0 144.46715 196.05883 A 7.5951061 7.4745488 0 0 0 147.07991 190.48036 A 7.5951061 7.4745488 0 0 0 139.48451 183.00588 A 7.5951061 7.4745488 0 0 0 132.05861 189.21636 A 25.075905 15.913555 0 0 0 122.72739 188.06914 A 25.075905 15.913555 0 0 0 110.48835 190.10778 A 6.389534 8.6801214 0 0 0 113.56516 182.76455 A 6.389534 8.6801214 0 0 0 107.17537 174.08446 z " /><path
         style="fill:#844e08;fill-opacity:1;stroke-width:0.264583;stroke-linecap:round;stroke-linejoin:round"
         d="m 112.1227,206.62571 c 0.2995,1.79451 2.76144,3.27028 3.61631,5.72126 0.85487,2.45098 -0.12485,5.66485 -0.12485,5.66485 0,0 -1.84461,-2.85303 -2.89839,-4.1771 -1.05377,-1.32407 -2.35651,-2.89987 -3.40988,-3.75086 -1.05336,-0.85099 -1.9334,-0.3707 -2.64265,-1.53444 -0.70925,-1.16374 0.28202,-3.70346 -0.25574,-5.11481 -0.53775,-1.41135 -2.14175,-1.79074 -2.47216,-3.06889 -0.3304,-1.27815 0.71548,-2.54488 0.68198,-3.92135 -0.0335,-1.37647 -0.0283,-2.8221 -0.93772,-4.1771 -0.90937,-1.355 -0.0137,-2.06126 -1.15083,-3.36725 -1.13715,-1.30599 -3.537747,-2.81314 -3.537747,-2.81314 0,0 1.895357,1.66099 2.880737,3.05853 0.98538,1.39754 0.004,2.37629 0.78488,3.63334 0.78132,1.25705 0.87483,2.37597 0.76722,3.58037 -0.10761,1.2044 -1.36395,3.32463 -1.36395,3.32463 0,0 -2.05716,-0.81073 -3.324617,-2.04593 -1.26746,-1.2352 -3.89892,-0.34007 -5.45794,-1.47631 -1.559031,-1.13624 -3.066757,-3.38276 -3.066757,-3.38276 0,0 1.234746,2.69181 2.600036,4.04923 1.365291,1.35742 3.325601,0.1429 4.986941,2.0033 1.66134,1.8604 5.959997,2.73459 6.990237,4.60333 1.03024,1.86874 0.0853,4.43283 0.0853,4.43283 0,0 -2.4147,-2.60154 -4.17709,-3.49511 -0.20436,-0.10361 -2.520477,0.0129 -4.691997,-0.33127 -2.72697,-0.43217 -5.105742,-1.58428 -5.105742,-1.58428 0,0 2.078262,1.57126 4.693132,2.38576 1.71639,0.53463 3.77802,0.52589 4.486567,0.93636 1.78802,1.0358 2.69086,3.44628 4.02791,4.39021 1.33705,0.94393 2.23995,0.78575 3.49512,1.61969 1.25517,0.83394 3.83611,3.49512 3.83611,3.49512 -2.81263,-0.33126 -5.48934,-1.00107 -8.09845,-2.13117 -1.72491,-0.56582 -3.603727,-0.8852 -5.178737,-0.9164 -1.57502,-0.0312 -2.60367,0.30177 -4.02792,0.49016 -1.424243,0.18835 -4.432843,0.25575 -4.432843,0.25575 0,0 2.49846,0.90391 3.836113,0.93771 3.1728,-0.11352 4.50731,-1.58896 8.098447,0.25574 0,0 -1.857167,1.35135 -2.983627,1.91805 -1.12647,0.5667 -3.83611,1.23608 -3.83611,1.23608 6.291637,-0.23401 4.21607,-2.05501 8.013197,-2.30166 2.59699,-0.16869 8.65474,1.91602 9.93857,3.09385 1.28383,1.17784 2.00019,6.46028 2.29133,9.39888 0.29113,2.9386 -1.70494,33.41676 -1.70494,33.41676 h 7.58697 l 5e-5,-1e-5 c 0,0 -0.0411,-1.20156 -0.31228,-3.83345 -0.44512,-4.32038 -1.2212,-11.19486 -1.31461,-13.31341 -0.34865,-7.9071 1.10121,-7.3737 0.10416,-15.31033 0.17541,-2.43866 -0.0345,-0.95176 0.5425,-2.56184 0.57699,-1.61008 2.2366,-5.08124 3.5263,-6.78135 1.2897,-1.70011 2.4577,-2.54835 3.76742,-3.5263 1.30971,-0.97795 2.33735,-1.74426 4.00853,-2.35086 1.67118,-0.6066 4.31064,-1.24435 5.93744,-0.9946 1.6268,0.24975 2.48317,1.45415 3.43588,1.74808 0.95271,0.29395 0.95395,0.24583 2.10975,0.27125 1.1558,0.0254 2.65573,-0.24526 4.45936,-1.61327 -2.04133,1.01262 -3.42119,0.99747 -4.42922,0.85979 -1.00803,-0.13768 -1.43675,-0.20042 -2.04947,-0.48223 -0.61273,-0.28181 -1.56725,-1.14529 -1.56725,-1.14529 0.94437,-0.22805 0.36077,-0.46451 2.22963,-0.7632 1.86887,-0.29869 3.62137,-0.36544 5.02109,-0.1522 1.50068,0.17197 3.31835,0.51399 3.31835,0.51399 0,0 -2.16699,-1.01786 -3.5896,-1.3579 -1.42262,-0.34004 -3.75457,-0.29016 -3.75457,-0.29016 0,0 0.36499,-0.81896 1.02474,-1.41655 0.65975,-0.59759 3.10435,-1.80835 3.10435,-1.80835 0,0 -2.76422,0.80302 -3.61672,1.44668 -0.8525,0.64366 -1.05309,1.73942 -1.5371,1.9892 -6.67974,0.54594 -10.43601,1.92079 -13.68423,3.30447 -1.37121,0.91654 -3.41132,2.18285 -4.85907,3.58037 -1.44775,1.39752 -3.75086,4.7312 -3.75086,4.7312 0,0 -0.62706,-2.84479 -0.25574,-4.47546 0.37131,-1.63067 1.55495,-3.18389 2.68527,-4.85907 2.0041,0.60517 4.32132,-0.0518 5.95997,-0.80311 1.63865,-0.75128 3.19713,-1.68949 4.67184,-2.67834 1.47471,-0.98885 2.45037,-3.05831 4.24965,-3.91811 1.79928,-0.85978 6.11828,-0.90418 6.11828,-0.90418 0,0 -4.56188,-0.35787 -6.44982,0.36167 -1.88794,0.71954 -2.95328,2.5483 -4.43047,3.5263 -1.47719,0.978 -3.79814,2.20772 -4.36528,2.3699 -1.6721,0.61735 -2.9545,1.8059 -4.81645,0.89509 0,0 1.56587,-1.93875 2.64265,-2.64265 1.07678,-0.7039 2.63245,-0.6055 3.70824,-1.4492 1.07579,-0.8437 2.42953,-3.4525 2.42953,-3.4525 0,0 -2.05867,2.43486 -3.11151,3.02627 -1.05284,0.59141 -1.85691,0.33821 -2.81314,0.7246 -0.95623,0.38639 -1.63306,0.57392 -2.85577,1.61969 -1.22271,1.04577 -3.96398,4.98694 -3.96398,4.98694 0,0 -0.19909,-3.13803 0.21312,-4.64596 0.4122,-1.50793 0.94261,-3.04968 2.21642,-4.17709 1.2738,-1.12741 3.61948,-1.09829 5.11481,-1.96068 1.49533,-0.86239 2.80745,-2.49335 3.79348,-3.06889 0.98603,-0.57554 0.53003,-0.54882 1.83281,-0.72459 1.30278,-0.17577 4.14456,0.13579 5.88203,0.63935 1.73747,0.50356 4.43284,2.17379 4.43284,2.17379 0,0 -2.66978,-2.52644 -4.04923,-3.06888 -1.37945,-0.54244 -3.79348,-0.38362 -3.79348,-0.38362 0,0 2.46355,-0.5895 3.79348,-1.1082 1.32994,-0.5187 3.02431,-2.17123 4.13447,-2.04593 1.11017,0.1253 0.64249,0.95067 1.61969,1.32133 0.9772,0.37066 4.17709,0.17049 4.17709,0.17049 0,0 -2.59292,-0.2195 -3.40988,-0.59673 -0.81694,-0.37723 -1.4918,-1.23608 -1.4918,-1.23608 l 5.79677,-0.38361 c 0,0 -4.74903,-0.46569 -6.564,-0.12787 -1.81497,0.33782 -2.78444,1.16513 -4.17709,1.70494 -1.39265,0.53981 -4.22231,1.36867 -4.22231,1.36867 0.73928,-0.9481 2.17534,-2.15231 2.67959,-2.42901 0.50425,-0.2767 0.65583,-0.55023 0.98292,-1.62442 0.3271,-1.07419 0.51148,-4.68857 0.51148,-4.68857 l -1.02296,4.26234 c 0,0 -0.97279,-0.47083 -1.53444,-1.10821 -0.56166,-0.63738 -1.53444,-2.81315 -1.53444,-2.81315 0,0 0.41294,2.39419 0.93771,3.15414 0.52477,0.75995 1.68338,0.85363 1.79018,1.36395 0.10681,0.51032 -0.15976,0.58588 -0.42623,0.76722 -0.26647,0.18134 -2.25303,1.45316 -3.27631,3.19624 -1.08568,0.70772 -1.39561,0.0123 -2.64265,0.51148 -1.24705,0.49922 -3.09811,2.15725 -4.51809,2.89839 -1.41998,0.74114 -3.92135,1.61969 -3.92135,1.61969 0,0 1.36249,-1.92535 2.21642,-2.81315 0.85392,-0.8878 1.67646,-1.27327 2.89839,-2.47215 1.22193,-1.19888 2.47993,-2.35666 2.62714,-3.77583 0.14721,-1.41917 -0.24023,-4.74886 -0.24023,-4.74886 0,0 1.68828,-0.4495 2.14935,-1.48184 0.46107,-1.03234 -0.22373,-3.45496 0.74904,-4.31494 0.97277,-0.85998 0.97893,-4.59743 0.97893,-4.59743 0,0 -0.52412,3.51568 -1.71084,4.25215 -1.18671,0.73647 -0.35699,2.94015 -0.84892,4.01872 -0.49188,1.07857 -2.34052,1.44137 -2.34052,1.44137 0,0 -1.53232,-1.29125 -1.27693,-2.46773 0.25539,-1.17651 0.8615,-0.52911 1.36912,-1.25891 0.50761,-0.7298 1.2787,-3.40987 1.2787,-3.40987 0,0 -1.06644,2.24985 -1.61969,2.81315 -0.55325,0.5633 -1.64037,0.52611 -1.64037,0.52611 0,0 -0.53193,-1.69852 -0.60661,-2.57824 -0.16665,-1.96338 0.36461,-5.90006 0.36461,-5.90006 0,0 -1.49143,5.32735 -1.11767,7.84788 0.37376,2.52053 2.69687,4.58033 3.07834,6.47359 0.38148,1.89326 0.48349,2.74982 -0.34098,4.1771 -1.20931,2.09349 -4.67908,3.22944 -6.13778,5.45579 0,0 -0.32469,-0.6014 -0.21311,-1.12951 0.11158,-0.52811 0.61537,-1.11769 0.89509,-1.85413 0.27969,-0.73644 0.009,-1.58248 0.34099,-2.47215 0.33231,-0.88967 0.27805,-3.80864 0.27805,-3.80864 0,0 -0.29915,2.81972 -0.76822,3.61683 -0.46905,0.79711 -0.1171,1.7174 -0.44755,2.32297 -0.33044,0.60557 -0.7452,1.14489 -1.06558,2.1738 -0.32036,1.02892 -0.01,2.16517 -0.29836,3.36725 -0.2885,1.20208 -1.36395,2.55741 -1.36395,2.55741 0,0 0.14825,-2.19446 -0.34099,-3.49512 -0.48924,-1.30066 -2.34102,-2.79376 -2.81314,-3.92136 -0.47214,-1.1276 -0.72047,-1.46241 -0.42624,-2.47216 0.29423,-1.00975 1.88878,-2.71735 2.70659,-3.17544 0.81781,-0.45809 0.92057,-0.0471 1.61969,-0.61804 0.69911,-0.57098 0.55448,-1.98079 1.21477,-2.74922 0.66028,-0.76843 1.09609,-3.11354 1.09609,-3.11354 0,0 -0.83253,1.93248 -1.60758,2.58076 -0.77504,0.64828 -0.64371,2.40968 -1.2787,2.89839 -0.63499,0.48871 -0.88145,-0.16181 -1.61969,0.25574 -0.73823,0.41755 -2.21642,2.64265 -2.21642,2.64265 0,0 -0.35163,-2.10377 -0.0853,-3.49512 0.26634,-1.39135 1.5265,-3.26964 1.96068,-4.60333 0.43418,-1.33369 0.60941,-1.56823 0.76722,-3.32463 0.15781,-1.7564 0.5541,-4.41152 0.5541,-4.41152 l -1.49181,4.32628 c 0,0 -1.50238,-0.21493 -2.38691,-0.85247 -0.88454,-0.63754 -4.02791,-1.93936 -4.02791,-1.93936 0,0 2.61977,1.61359 3.5018,2.51112 0.88202,0.89753 2.31651,0.85324 2.53886,1.4154 0.22236,0.56215 -2.60948,6.11129 -2.60948,6.11129 0,0 -0.99429,-1.6049 -1.96068,-2.47216 -0.96639,-0.86726 -2.85774,-1.22616 -3.92136,-2.47216 -1.06361,-1.246 -4.36665,-2.24212 -4.36665,-2.24212 0,0 2.94458,1.54669 3.92062,2.98349 0.97604,1.4368 2.52997,1.66245 3.5554,2.68314 1.02543,1.02069 1.75581,2.22395 2.34643,3.82147 0.59058,1.59752 0.021,3.92351 0.51148,5.79679 0.49052,1.87328 2.24895,3.51898 2.35678,4.95377 0.10783,1.43479 -0.0286,2.72935 -0.19458,3.84305 -0.16599,1.1137 -0.62776,3.13774 -0.62776,3.13774 0,0 -1.2525,-1.29943 -2.06723,-2.55741 -0.74305,-1.1473 -0.60375,-3.01863 -0.75215,-4.302 -0.26643,-2.30405 -1.25445,-4.48028 -1.57707,-6.77713 -0.1959,-1.39467 0.42449,-2.96395 -0.21312,-4.21971 -0.87801,-1.72922 -4.51808,-3.66562 -4.51808,-3.66562 0,0 3.45787,2.18429 4.17709,3.96398 0.49022,1.21304 0.0426,4.30497 -0.17049,3.92135 -0.21312,-0.38361 -2.18466,-1.66589 -2.77052,-2.85576 -0.30444,-0.6183 -0.29837,-2.04593 -0.29837,-2.04593 0,0 -0.33668,1.57624 -0.0853,2.30167 0.56765,1.63814 2.58963,2.41445 3.36726,3.96397 0.65391,1.303 0.98033,4.26235 0.98033,4.26235 l -3.62299,-3.06889 c 0,0 0.19308,-1.18463 0.0426,-1.74756 -0.0988,-0.36958 -0.59673,-0.98034 -0.59673,-0.98034 0,0 0.34438,0.71927 0.38361,1.10821 0.0616,0.61063 -0.24268,1.82512 -0.24268,1.82512 0,0 -0.28685,0.12203 -0.45739,0.20529 -0.50847,0.24822 -1.17536,-0.53859 -1.17536,-0.53859 0,0 0.49228,1.15801 1.17536,1.13532 0.27129,-0.009 0.87056,-0.32548 0.87056,-0.32548 l 3.36725,3.58037 z"
         id="path3-0"
         sodipodi:nodetypes="sczzzzzzczzczzczcczzzczsscsszzczzzzczzzczzzccssczzczzczczzczczzzczcczzczzcczczzzczczzzzzzczzzczzczzzczzzczczzczczczczzzczzzczzzzzzzzzzsssczzzczczczzzczzzzzczzzczzzczzczzzczzzzzzzzczsssscssscssccscscscsccs" /><path
         id="path29"
         style="fill:#00aa00;stroke-width:0.264583;stroke-linecap:round;stroke-linejoin:round"
         d="M 119.35189 161.3054 A 15.913555 10.367922 0 0 0 103.43813 171.67376 A 15.913555 10.367922 0 0 0 103.45673 171.79003 A 7.9279566 7.0754881 0 0 0 97.692745 178.5922 A 7.9279566 7.0754881 0 0 0 98.851847 182.25399 A 9.5240221 7.1128774 0 0 0 94.03457 188.43088 A 9.5240221 7.1128774 0 0 0 103.55854 195.54362 A 9.5240221 7.1128774 0 0 0 104.78637 195.48316 A 15.551884 10.970709 0 0 0 110.11524 199.56973 A 8.31845 7.8362207 0 0 0 104.40241 206.99667 A 8.31845 7.8362207 0 0 0 112.72077 214.83288 A 8.31845 7.8362207 0 0 0 119.37876 211.6615 A 10.729594 9.5240221 0 0 0 125.49983 213.38646 A 10.729594 9.5240221 0 0 0 133.41873 210.21301 A 7.6722159 4.5180826 0 0 0 139.17703 212.07646 A 8.4390068 6.1484194 0 0 0 138.15849 214.9538 A 8.4390068 6.1484194 0 0 0 146.59777 221.10175 A 8.4390068 6.1484194 0 0 0 155.03653 214.9538 A 8.4390068 6.1484194 0 0 0 147.0024 208.81981 A 7.6722159 4.5180826 0 0 0 147.30677 207.57596 A 7.6722159 4.5180826 0 0 0 147.13882 206.64217 A 7.9567776 8.5595636 0 0 0 152.62531 198.55791 A 7.9567776 8.5595636 0 0 0 148.51187 191.07361 A 5.4557977 5.3705511 0 0 0 148.67051 189.84474 A 5.4557977 5.3705511 0 0 0 143.23363 184.47556 A 5.7115388 4.8590698 0 0 0 143.38505 183.36607 A 5.7115388 4.8590698 0 0 0 138.87266 178.61649 A 4.5180826 4.0066018 0 0 0 138.95224 177.91007 A 4.5180826 4.0066018 0 0 0 134.83156 173.92892 A 15.913555 10.367922 0 0 0 135.26513 171.67376 A 15.913555 10.367922 0 0 0 119.35189 161.3054 z M 137.81381 190.59922 A 5.4557977 5.3705511 0 0 0 138.75122 192.91432 A 7.9567776 8.5595636 0 0 0 136.71207 198.55791 A 7.9567776 8.5595636 0 0 0 138.01483 203.16899 A 7.6722159 4.5180826 0 0 0 136.18704 203.55037 A 10.729594 9.5240221 0 0 0 131.73046 196.13531 A 15.551884 10.970709 0 0 0 133.52467 193.20216 A 7.8362207 8.0773354 0 0 0 137.81381 190.59922 z M 91.261613 191.44465 A 6.8717628 8.0773354 0 0 0 84.390198 199.52219 A 6.8717628 8.0773354 0 0 0 90.445642 207.531 A 6.389534 6.0278621 0 0 0 87.765702 212.42166 A 6.389534 6.0278621 0 0 0 94.154976 218.44972 A 6.389534 6.0278621 0 0 0 100.54477 212.42166 A 6.389534 6.0278621 0 0 0 100.41248 211.27238 A 5.0634041 5.1839609 0 0 0 104.1616 206.2732 A 5.0634041 5.1839609 0 0 0 99.097827 201.08953 A 5.0634041 5.1839609 0 0 0 97.975932 201.23164 A 6.8717628 8.0773354 0 0 0 98.133545 199.52219 A 6.8717628 8.0773354 0 0 0 91.261613 191.44465 z " /></g><path
       id="path50"
       style="fill:#ffffff;fill-opacity:1;stroke-width:0.264583;stroke-linecap:round;stroke-linejoin:round"
       d="m 343.44659,168.66518 a 22.664761,18.445257 0 0 0 -18.95079,8.34729 22.664761,18.445257 0 0 0 -12.25248,-2.92798 22.664761,18.445257 0 0 0 -22.66476,18.44538 22.664761,18.445257 0 0 0 1.40301,6.25544 24.111448,18.204144 0 0 0 -16.11116,17.1328 24.111448,18.204144 0 0 0 24.11171,18.20406 24.111448,18.204144 0 0 0 4.5439,-0.36536 22.664761,18.445257 0 0 0 18.85415,8.24136 22.664761,18.445257 0 0 0 18.71049,-8.04447 22.664761,18.445257 0 0 0 19.1642,8.6186 22.664761,18.445257 0 0 0 22.66477,-18.44539 22.664761,18.445257 0 0 0 -0.17157,-2.22002 22.664761,18.445257 0 0 0 11.67423,-16.12563 22.664761,18.445257 0 0 0 -22.66477,-18.44538 22.664761,18.445257 0 0 0 -5.7211,0.62941 22.664761,18.445257 0 0 0 0.0749,-0.85472 22.664761,18.445257 0 0 0 -22.66476,-18.44539 z"
       inkscape:label="cloud1" /><path
       id="path51"
       style="fill:#ffffff;fill-opacity:1;stroke-width:0.264583;stroke-linecap:round;stroke-linejoin:round"
       d="m 483.55483,159.859 a 25.919806,26.643148 0 0 0 -25.91935,26.64282 25.919806,26.643148 0 0 0 0.0961,1.38338 28.210394,20.133059 0 0 0 -2.0252,-0.0568 28.210394,20.133059 0 0 0 -28.21068,20.13314 28.210394,20.133059 0 0 0 23.60269,19.82928 27.12538,17.84247 0 0 0 -0.93741,4.64364 27.12538,17.84247 0 0 0 27.12496,17.84233 27.12538,17.84247 0 0 0 27.01541,-16.73903 42.43615,22.182531 0 0 0 14.09474,1.30793 42.43615,22.182531 0 0 0 1.28726,-0.0445 24.232006,16.878014 0 0 0 23.427,12.58218 24.232006,16.878014 0 0 0 24.23211,-16.87804 24.232006,16.878014 0 0 0 -7.84552,-12.39149 42.43615,22.182531 0 0 0 1.33532,-5.45083 42.43615,22.182531 0 0 0 -23.75565,-19.86494 28.33095,18.445259 0 0 0 3.98425,-9.43043 28.33095,18.445259 0 0 0 -28.33109,-18.44538 28.33095,18.445259 0 0 0 -11.88196,1.73787 25.919806,26.643148 0 0 0 -17.293,-6.80113 z"
       inkscape:label="cloud2" /><path
       id="path57"
       style="fill:#ffffff;fill-opacity:1;stroke-width:0.264583;stroke-linecap:round;stroke-linejoin:round"
       d="m 685.74714,151.04713 a 33.587257,27.108498 0 0 0 -33.20056,23.08593 23.698622,17.560848 0 0 0 -13.17387,-2.96726 23.698622,17.560848 0 0 0 -23.6983,17.56069 23.698622,17.560848 0 0 0 23.6983,17.56068 23.698622,17.560848 0 0 0 3.23391,-0.16484 28.813433,26.426521 0 0 0 -7.49618,17.72605 28.813433,26.426521 0 0 0 28.81374,26.42629 28.813433,26.426521 0 0 0 17.06356,-5.2157 25.574053,13.298508 0 0 0 14.81873,2.4877 25.574053,13.298508 0 0 0 13.67204,-2.06086 34.26923,23.869116 0 0 0 22.30199,5.81205 34.26923,23.869116 0 0 0 34.26923,-23.86934 34.26923,23.869116 0 0 0 -6.09317,-13.49995 35.633183,23.698622 0 0 0 15.29984,-19.40554 35.633183,23.698622 0 0 0 -35.63296,-23.69829 35.633183,23.698622 0 0 0 -20.49849,4.36666 33.587257,27.108498 0 0 0 -33.37781,-24.14427 z"
       inkscape:label="cloud3" /><path
       id="path65"
       style="fill:#ffffff;fill-opacity:1;stroke-width:0.264583;stroke-linecap:round;stroke-linejoin:round"
       d="m 840.55526,214.81223 a 13.128014,8.695178 0 0 0 -12.92944,7.2745 13.809988,8.3541908 0 0 0 -9.40511,7.89926 13.809988,8.3541908 0 0 0 13.81001,8.35401 13.809988,8.3541908 0 0 0 11.34866,-3.62355 11.252584,8.3541908 0 0 0 8.94002,3.28248 11.252584,8.3541908 0 0 0 11.25254,-8.35401 11.252584,8.3541908 0 0 0 -10.30738,-8.30802 13.128014,8.695178 0 0 0 -12.7093,-6.52467 z"
       inkscape:label="cloud4" /></g></svg>
