<?xml version="1.0" encoding="UTF-8" standalone="no"?>
<!-- Created with Inkscape (http://www.inkscape.org/) -->

<svg
   width="212.25278"
   height="416.01337"
   viewBox="0 0 212.25278 416.01337"
   version="1.1"
   id="svg1"
   xmlns="http://www.w3.org/2000/svg"
   xmlns:svg="http://www.w3.org/2000/svg">
  <defs
     id="defs1" />
  <g
     id="layer1"
     transform="translate(684.52959,-557.9295)">
    <g
       id="g15"
       transform="translate(974.73661,-154.87231)">
      <g
         id="g13">
        <path
           style="fill:#f4c691;fill-opacity:1;stroke:none;stroke-width:1.18425;stroke-linecap:round;stroke-linejoin:round"
           d="m -1530.2843,737.00364 c -31.8271,-4.6482 -95.2034,19.59696 -106.8118,92.72352 -11.4753,72.28835 -11.5031,174.82894 -15.7901,210.20514 -4.2905,35.4054 -19.7376,73.029 21.7114,85.8585 41.4489,12.8294 58.2258,-16.777 70.0683,-58.2259 11.8426,-41.4489 32.5497,-153.08732 28.6195,-180.59877 -5.9213,-41.44891 42.1469,-54.13762 45.3964,-88.87009 2.4165,-25.82839 -11.3666,-56.4442 -43.1937,-61.0924 z"
           id="path13" />
        <path
           id="path32-2-6-3"
           style="fill:#b6b6b6;fill-opacity:1;stroke:none;stroke-width:1.18425;stroke-linecap:round;stroke-linejoin:round;stroke-dasharray:none;stroke-opacity:1"
           d="m -1610.0807,736.90302 c -12.7562,10.66162 -25.2373,53.2296 -29.5154,82.32414 -7.343,49.93831 -7.3578,108.05043 -8.4039,126.35517 40.4792,0.32559 79.3735,3.73579 104.9484,30.14991 6.2949,6.50154 12.2898,-63.11784 12.2898,-63.11784 179.0605,-67.40147 31.9117,-268.67804 -79.3189,-175.71138 z" />
      </g>
    </g>
  </g>
</svg>
