<?xml version="1.0" encoding="UTF-8" standalone="no"?>
<!-- Created with Inkscape (http://www.inkscape.org/) -->

<svg
   width="634.9729"
   height="1506.116"
   viewBox="0 0 634.9729 1506.116"
   version="1.1"
   id="svg1"
   xmlns="http://www.w3.org/2000/svg"
   xmlns:svg="http://www.w3.org/2000/svg">
  <defs
     id="defs1" />
  <g
     id="layer1"
     transform="translate(-318.68362,-519.40923)">
    <g
       id="g37"
       transform="matrix(1.9737573,0,0,1.9737573,-2039.6386,7.6082586)">
      <path
         id="path32-6"
         style="fill:#070d52;fill-opacity:1;stroke:none;stroke-width:0.6;stroke-linecap:round;stroke-linejoin:round;stroke-dasharray:none;stroke-opacity:1"
         d="m 1196.0522,720.00015 c 0.1397,122.92862 -0.5429,294.40435 -0.5429,294.40435 0,0 46.0951,8.0184 69.3711,7.9687 25.7582,-0.055 50.9742,-9.0929 76.7324,-9.1464 20.8297,-0.043 41.2505,7.2365 62.0801,7.1386 21.249,-0.1 42.0294,-6.9771 63.2597,-7.8769 16.3057,-0.6911 48.9239,1.916 48.9239,1.916 0,0 -0.6846,-171.47573 -0.545,-294.40435 h -53.332 L 1336.853,596.11148 1229.9995,720.00015 Z" />
      <path
         id="path21"
         style="fill:#1d2580;fill-opacity:1;stroke:none;stroke-width:0.6;stroke-linecap:round;stroke-linejoin:round;stroke-dasharray:none;stroke-opacity:1"
         d="m 1196.0522,720.00015 h 33.9473 l 106.8535,-123.88867 125.1465,123.88867 h 53.332 c 0.068,-59.99123 0.2772,-111.24762 0.9649,-119.91211 2.0968,-26.41897 -9.6457,-183.25444 -10.4844,-197.93164 -0.53,-9.27406 -0.5375,-38.71644 -4.2578,-64.01758 -2.1675,-14.74069 -5.6997,-29.07135 -9.4047,-36.63576 -10.0644,-20.54809 -67.2248,-38.84539 -99.0953,-42.20018 -24.3484,13.97829 -49.256,13.97829 -74.7227,0 -31.8705,3.35479 -88.0176,22.91871 -98.082,43.4668 -3.705,7.56441 -8.2506,20.62845 -10.418,35.36914 -3.7203,25.30114 -3.7279,54.74352 -4.2578,64.01758 -0.8387,14.6772 -12.5812,171.51267 -10.4844,197.93164 0.6877,8.66449 0.8948,59.92088 0.9629,119.91211 z" />
    </g>
  </g>
</svg>
