<?xml version="1.0" encoding="UTF-8" standalone="no"?>
<!-- Created with Inkscape (http://www.inkscape.org/) -->

<svg
   width="637.00244"
   height="1490.3876"
   viewBox="0 0 637.00244 1490.3876"
   version="1.1"
   id="svg1"
   xmlns:xlink="http://www.w3.org/1999/xlink"
   xmlns="http://www.w3.org/2000/svg"
   xmlns:svg="http://www.w3.org/2000/svg">
  <defs
     id="defs1" />
  <g
     id="layer1"
     transform="translate(-1518.7361,442.0999)">
    <g
       id="g26"
       transform="matrix(1.9737573,0,0,1.9737573,593.41692,-953.90058)"
       style="display:inline">
      <g
         id="g25">
        <path
           style="fill:#1d2580;fill-opacity:1;stroke-width:0.8;stroke-linecap:round;stroke-linejoin:round"
           d="m 502.58278,517.42583 c 2.21337,30.80993 -14.69552,76.84293 -32.74354,74.03753 l 0.67,422.94114 c 0,0 13.96355,-3.9396 21.12268,-4.974 6.95016,-1.0042 14.02728,-1.6367 21.03429,-1.1731 6.00863,0.3975 11.72723,3.5051 17.74756,3.3733 7.20235,-0.1577 13.92257,-3.8163 21.03513,-4.961 7.67947,-1.2359 15.61643,-0.5237 23.24554,-2.0397 6.39541,-1.2709 12.1805,-5.1383 18.65972,-5.8705 7.38223,-0.83424 14.87503,2.9118 22.21683,1.7755 2.55379,-0.3953 4.33386,-1.96786 6.55124,-2.82869 0.80592,-0.31288 2.24912,-0.51018 2.45106,-0.84786 0.20194,-0.33769 0.14718,-1.57776 0.14718,-1.57776 0,0 -5.18829,-18.91301 -4.76414,-28.55288 0.44768,-10.17495 7.00728,-19.41553 7.65608,-29.57964 1.07765,-16.88236 -6.1824,-33.43352 -6.36648,-50.34924 -0.0935,-8.58982 2.76012,-17.04179 2.67577,-25.63171 -0.0831,-8.46275 -2.81663,-16.73831 -3.13155,-25.1956 -0.67062,-18.00958 2.93432,-35.98074 2.65986,-54.00071 -0.13504,-8.86594 -2.19536,-17.6499 -2.11721,-26.51653 0.0558,-6.33579 1.20384,-12.61485 1.84664,-18.9182 1.00003,-9.80636 3.28243,-19.54984 3.12724,-29.40584 -0.13219,-8.39516 -3.1372,-16.56074 -3.45099,-24.95107 -0.31219,-8.34771 2.06391,-16.67253 1.56966,-25.01144 -0.50338,-8.49296 -4.44655,-16.59975 -4.59656,-25.10629 -0.10606,-6.01447 2.00164,-11.87139 2.62206,-17.85471 1.09812,-10.59025 2.17946,-21.23763 1.94182,-31.882 -0.24532,-10.98814 -3.31598,-21.79961 -3.47135,-32.78939 -0.15693,-11.1003 2.6359,-22.10383 2.56861,-33.20504 -0.0699,-11.53785 -2.31557,-22.964 -3.08778,-34.4762 -4.66173,-69.49786 8.36264,-173.10364 -9.32279,-208.75402 z"
           id="path5" />
        <path
           style="fill:#1d2580;fill-opacity:1;stroke-width:0.8;stroke-linecap:round;stroke-linejoin:round"
           d="m 756.95733,508.97275 c -2.21337,30.80993 16.54167,85.29601 34.58969,82.49061 l -0.67,422.94114 c 0,0 -8.69099,-6.6701 -13.87484,-7.8024 -7.97061,-1.741 -16.23659,2.1936 -24.39304,2.0089 -6.91299,-0.1567 -13.66919,-2.3054 -20.57599,-2.6372 -7.36043,-0.3535 -14.84146,1.9903 -22.09579,0.6959 -7.04025,-1.2562 -12.73917,-7.81594 -19.88678,-8.05011 -8.40793,-0.27546 -15.55777,8.26571 -23.96302,7.91811 -5.86462,-0.2426 -8.86463,-5.7503 -16.20643,-6.88658 -2.55379,-0.3953 -7.13744,-1.02994 -10.6171,-1.94481 -0.83611,-0.21983 -2.24912,-0.51018 -2.45106,-0.84786 -0.20194,-0.33769 -0.14718,-1.57776 -0.14718,-1.57776 0,0 1.32943,-15.68398 2.11249,-23.51474 1.13448,-11.34502 3.6457,-22.5979 3.74602,-33.99906 0.14362,-16.32135 -5.00395,-32.44389 -4.50529,-48.75825 0.28143,-9.20736 3.90726,-18.10469 4.21852,-27.31109 0.51864,-15.34034 -5.36374,-30.59559 -3.93952,-45.87847 0.41701,-4.47475 3.258,-8.50865 3.61572,-12.98852 0.94397,-11.82199 -3.61153,-23.50152 -3.98159,-35.35536 -0.37191,-11.91293 1.42526,-23.79846 1.77728,-35.71199 0.29867,-10.10799 0.19801,-20.22384 0.28372,-30.33588 0.0806,-9.50954 -0.35842,-19.03636 0.21681,-28.52884 0.50755,-8.37572 2.84559,-16.62035 2.84976,-25.01144 0.004,-7.0877 -2.17842,-14.04415 -2.38612,-21.12881 -0.23,-7.84519 1.43702,-15.66485 1.26702,-23.51157 -0.17741,-8.18916 -2.11958,-16.27054 -2.38376,-24.45737 -0.50291,-15.58511 1.85935,-31.16507 1.52681,-46.75475 -0.19261,-9.02949 -2.38943,-17.99314 -2.03828,-27.01786 0.41269,-10.60643 3.87496,-20.90193 4.85555,-31.47099 6.17564,-66.56342 -11.27946,-164.79514 6.40597,-200.44552 z"
           id="path5-2" />
      </g>
      <path
         id="path32-4"
         style="fill:#313ba8;fill-opacity:1;stroke:none;stroke-width:0.6;stroke-linecap:round;stroke-linejoin:round;stroke-dasharray:none;stroke-opacity:1"
         d="m 593.33203,259.30273 c -31.87048,3.35479 -91.66597,21.50433 -98.08203,43.4668 -14.68481,17.79915 -13.66355,19.39987 -18.34227,36.89113 -14.8267,55.42911 -4.62868,84.51531 -5.26611,131.94818 -0.14744,10.97115 30.94116,45.81699 30.12907,65.53921 -1.43181,34.7723 -17.26053,417.91496 5.17179,439.13432 8.56119,8.09826 78.95319,15.00194 86.41168,-11.57718 15.1208,-53.88455 12.78376,-450.89027 15.74203,-486.07867 C 611.69965,447.65867 618.25,337.5 619.5,330.75 c 1.05387,-5.69092 2.13583,-50.5875 -14.75586,-66.20703 -3.7931,-1.46733 -7.59387,-3.14446 -11.41211,-5.24024 z" />
      <path
         id="path32-4-5"
         style="fill:#313ba8;fill-opacity:1;stroke:none;stroke-width:0.6;stroke-linecap:round;stroke-linejoin:round;stroke-dasharray:none;stroke-opacity:1"
         d="m 668.05414,259.3029 c 31.87048,3.35479 89.03099,21.65207 99.09539,42.20016 3.705,7.56441 7.23721,21.89509 9.40461,36.63578 3.7203,25.30114 3.72791,54.74352 4.25781,64.01758 0.27741,4.85461 1.79577,26.30717 3.98913,58.38079 1.13629,16.61601 -24.58289,39.11456 -26.9971,67.90226 -1.01744,12.13224 10.26131,418.43303 1.54014,437.23824 -16.23133,34.99919 -78.49409,17.55022 -93.36514,-1.0302 -14.87105,-18.58042 -9.2517,-368.53624 -14.30728,-387.64838 -13.45083,-50.84967 -8.21113,-132.94054 -9.3671,-157.51757 -0.78121,-16.60912 -0.60128,-41.42479 -0.41485,-60.62388 0.1452,-14.95283 0.29433,-26.49878 -0.004,-28.10751 -1.05388,-5.69092 -2.13583,-50.5875 14.75586,-66.20703 3.7931,-1.46733 7.59387,-3.14446 11.41211,-5.24024 z" />
      <g
         id="g22" />
      <g
         id="g38"
         transform="translate(3.3149719,-5.0050239)"
         style="stroke-width:2.31741;stroke-dasharray:none">
        <circle
           style="fill:#29328d;fill-opacity:1;stroke:#3b47c5;stroke-width:0.759972;stroke-linecap:round;stroke-linejoin:round;stroke-dasharray:none;stroke-opacity:1"
           id="path40-2"
           cx="604.04205"
           cy="269.03116"
           r="1.8136349"
           transform="translate(-3.3149719,5.0050239)" />
        <use
           x="0"
           y="0"
           xlink:href="#path40-2"
           id="use41"
           transform="translate(53.456263,-1.0919903)"
           style="stroke-width:2.31741;stroke-dasharray:none" />
        <path
           style="fill:none;fill-opacity:1;stroke:#1d2261;stroke-width:2.31741;stroke-linecap:round;stroke-linejoin:round;stroke-dasharray:none;stroke-opacity:1"
           d="m 603.81959,267.07255 c 21.92991,5.44614 47.36595,0.96796 53.45627,-1.092"
           id="path39"
           transform="translate(-3.0925155,6.963642)" />
        <path
           style="fill:none;fill-opacity:1;stroke:#2c3596;stroke-width:2.31741;stroke-linecap:round;stroke-linejoin:round;stroke-dasharray:none;stroke-opacity:1"
           d="m 623.64232,297.34748 c 1.29867,-1.47779 1.74649,-6.71726 1.4778,-9.22504 -0.26869,-2.50778 -1.92562,-8.28463 2.44672,-11.86419 1.58364,6.57994 -0.20763,8.28165 0.55366,11.01334 0.76129,2.73169 2.05996,5.19468 2.05996,5.19468"
           id="path38" />
        <path
           style="fill:none;fill-opacity:1;stroke:#232976;stroke-width:2.31741;stroke-linecap:round;stroke-linejoin:round;stroke-dasharray:none;stroke-opacity:1"
           d="m 627.56684,276.25825 c -2.51573,-1.32564 -12.62061,7.36474 -9.17862,9.2107 5.51274,2.95652 7.02537,-9.46402 9.17862,-9.2107 -2.81774,7.16249 4.12193,15.02581 6.64975,9.43632 1.7594,-3.89036 -6.12022,-4.03557 -6.64975,-9.43632"
           id="path37" />
      </g>
    </g>
  </g>
</svg>
