<?xml version="1.0" encoding="UTF-8" standalone="no"?>
<!-- Created with Inkscape (http://www.inkscape.org/) -->

<svg
   width="43.133545"
   height="43.133507"
   viewBox="0 0 43.133545 43.133507"
   version="1.1"
   id="svg1"
   xmlns="http://www.w3.org/2000/svg"
   xmlns:svg="http://www.w3.org/2000/svg">
  <defs
     id="defs1" />
  <g
     id="layer1"
     transform="translate(534.2193,13.788577)">
    <g
       id="g5"
       transform="translate(-61.711619,-184)">
      <g
         id="g27"
         transform="matrix(1.9737573,0,0,1.9737573,-1957.0547,-175.71992)">
        <path
           id="path9"
           style="fill:#ffffff;stroke-width:0.506648;stroke-linecap:round;stroke-linejoin:round"
           d="m 773.99615,186.19214 a 10.926752,10.926752 0 0 1 -10.92675,10.92675 10.926752,10.926752 0 0 1 -10.92676,-10.92675 10.926752,10.926752 0 0 1 10.92676,-10.92675 10.926752,10.926752 0 0 1 10.92675,10.92675 z" />
        <path
           id="path12"
           style="stroke-width:0.506648;stroke-linecap:round;stroke-linejoin:round"
           d="m 760.34976,189.47107 a 3.0928612,3.0928612 0 0 1 -3.09286,3.09286 3.0928612,3.0928612 0 0 1 -3.09286,-3.09286 3.0928612,3.0928612 0 0 1 3.09286,-3.09286 3.0928612,3.0928612 0 0 1 3.09286,3.09286 z" />
      </g>
    </g>
  </g>
</svg>
