<?xml version="1.0" encoding="UTF-8" standalone="no"?>
<!-- Created with Inkscape (http://www.inkscape.org/) -->

<svg
   width="399.552"
   height="449.05701"
   viewBox="0 0 399.552 449.05701"
   version="1.1"
   id="svg1"
   xmlns="http://www.w3.org/2000/svg"
   xmlns:svg="http://www.w3.org/2000/svg">
  <defs
     id="defs1" />
  <g
     id="layer1"
     transform="translate(658.68738,257.78528)">
    <g
       id="g5"
       transform="translate(-61.711619,-184)">
      <g
         id="g27"
         transform="matrix(1.9737573,0,0,1.9737573,-1957.0547,-175.71992)">
        <path
           style="fill:#f4c691;fill-opacity:1;stroke:#000000;stroke-linecap:round;stroke-linejoin:round;stroke-opacity:1"
           d="m 834.67279,162.62177 c 7.18023,12.8571 0.24063,58.07208 -2.85742,67.50174 -3.86414,11.76145 -27.95375,27.52753 -43.74181,27.5173 -26.95163,-0.0175 -38.84757,-25.03489 -41.20146,-33.8504 -2.42436,-9.07945 -6.3063,-49.5521 -2.49307,-59.33527 25.29278,-6.33193 64.15956,-8.72122 90.29376,-1.83337 z"
           id="path1" />
        <path
           id="path3"
           style="fill:#838383;fill-opacity:1;stroke:#797979;stroke-width:0.8;stroke-linecap:round;stroke-linejoin:round;stroke-dasharray:none;stroke-opacity:1"
           d="m 786.5124,223.89843 c -13.73529,-0.0802 -17.12217,7.37548 -27.42628,5.21317 -2.81853,6.66361 -1.59862,15.53687 0.45261,22.44915 1.82935,1.15159 3.36792,4.21003 3.36729,6.94661 -9.9e-4,4.25363 6.5984,8.50836 9.09886,9.65067 4.70246,2.14827 11.83611,1.35382 14.10438,10.60077 6.22148,-6.31187 8.07752,-4.56215 12.75078,-8.92369 1.55198,-1.44847 4.0068,-7.10288 7.01565,-9.17381 2.32536,-1.60049 6.32396,-11.0779 7.74544,-11.64815 0.63749,-4.57069 1.61105,-13.08323 0.30171,-20.72934 -10.258,1.62491 -13.95169,-4.30673 -27.41044,-4.38538 z m -0.52205,10.60984 c 4.27001,-0.0304 13.34117,4.04088 18.37914,2.74959 1.4809,-0.37953 4.40345,0.0509 5.53131,-1.35461 -2.30628,7.56165 -2.9684,7.35862 -6.4188,10.82053 -3.71126,3.72364 -11.62509,2.30966 -16.96953,2.30966 -5.34446,0 -15.05943,1.22044 -18.31984,-2.37414 -3.94593,-4.35037 -3.04179,-3.8099 -4.67098,-10.27881 1.29859,1.42883 2.55333,1.4445 4.53255,1.97381 4.54734,1.21613 13.78002,-3.81656 17.93615,-3.84603 z" />
        <path
           style="stroke-width:0.947245;stroke-linecap:round;stroke-linejoin:round"
           d="m 787.44912,194.18008 c -2.6699,7.35594 -0.93431,7.88523 -7.83548,17.58101 -1.22642,1.72305 -1.87325,3.27242 -1.72983,4.68812 0.14343,1.41569 1.01828,2.67548 2.52907,3.31906 3.29894,1.40531 5.23991,1.15735 7.83697,-0.38482 -2.83275,1.12336 -4.77513,0.89682 -7.4133,-0.46438 -1.25388,-0.64697 -1.89989,-1.48725 -2.00919,-2.56606 -0.1093,-1.07882 0.34872,-2.45227 1.54112,-4.01469 2.69435,-3.53046 5.78974,-7.91196 7.08064,-18.15824 z"
           id="path2" />
        <g
           id="g46"
           transform="matrix(1.9852025,0,0,1.9852025,-641.87221,-175.71939)"
           style="fill:#705b14;fill-opacity:1;stroke-width:0.503727;stroke-dasharray:none">
          <path
             style="fill:#929292;fill-opacity:1;stroke:#797979;stroke-width:0.503727;stroke-linecap:round;stroke-linejoin:round;stroke-dasharray:none;stroke-opacity:1"
             d="m 697.62426,186.50252 0.48976,-14.07887 c 7.1188,0.53872 14.35967,0.83277 21.53449,0.54759 8.08039,-0.32118 15.392,-1.23136 24.127,-2.53968 l 0.6761,12.79254 c 0.62141,3.41992 0.43918,4.55809 0.93313,7.97203 2.35618,-3.08954 2.65795,-3.395 3.35773,-5.5546 0.3453,-11.86505 4.0533,-29.89205 -7.73746,-33.68039 -11.23215,-3.60886 -30.28589,-5.56833 -38.6724,1.67388 -2.658,0.40082 -5.1315,3.06872 -6.4071,4.94641 -2.706,3.98324 -2.55459,16.56106 -0.64639,28.26663 0,0 2.32507,0.23131 2.34514,-0.34554 z"
             id="path33" />
          <path
             style="fill:none;fill-opacity:1;stroke:#6d6b69;stroke-width:0.503727;stroke-linecap:round;stroke-linejoin:round;stroke-dasharray:none;stroke-opacity:1"
             d="m 702.33261,153.63502 c -0.5812,5.69194 -0.16341,10.43268 0.69369,11.94281"
             id="path36" />
        </g>
        <path
           style="fill:#f4c691;fill-opacity:1;stroke:#000000;stroke-width:0.8;stroke-linecap:round;stroke-linejoin:round;stroke-dasharray:none;stroke-opacity:1"
           d="m 744.56199,208.98307 c -6.79628,-2.91356 -7.96999,-10.64466 -8.03724,-13.78373 -0.0673,-3.13904 1.99517,-6.47485 3.54457,-6.01927 1.54951,0.45556 2.70827,4.51173 3.47494,4.93521 z"
           id="path31-7-5" />
        <path
           style="fill:#f4c691;fill-opacity:1;stroke:#000000;stroke-width:0.8;stroke-linecap:round;stroke-linejoin:round;stroke-dasharray:none;stroke-opacity:1"
           d="m 835.66268,210.33595 c 6.79628,-2.91356 9.40597,-9.40429 9.47322,-12.54336 0.0673,-3.13904 -0.53468,-7.23382 -3.38585,-7.05562 -2.28642,0.14291 -4.09028,3.14879 -4.85695,3.57227 z"
           id="path31-7-5-3" />
      </g>
      <g
         id="g14"
         transform="matrix(1.9645547,0.19037529,-0.19037529,1.9645547,-1917.2081,-333.1007)"
         style="fill:#13336a;fill-opacity:1;stroke:#1c4c9f;stroke-width:2;stroke-dasharray:none;stroke-opacity:1">
        <path
           style="fill:#13336a;fill-opacity:1;stroke:#1c4c9f;stroke-width:2;stroke-linecap:round;stroke-linejoin:round;stroke-dasharray:none;stroke-opacity:1"
           d="m 706.15512,141.17399 c -8.375,2 -20.375,7.625 -18.375,9.125 2,1.5 184,7.5 197,1 13,-6.5 -10.6533,-13.9755 -14,-15 -12.25,-3.75 -156.25,2.875 -164.625,4.875 z"
           id="path10" />
        <path
           style="fill:#13336a;fill-opacity:1;stroke:#1c4c9f;stroke-width:2;stroke-linecap:round;stroke-linejoin:round;stroke-dasharray:none;stroke-opacity:1"
           d="m 734.90817,143.90254 c -1.36624,-2.44571 2.34516,-7.44523 4.74266,-11.04413 34.92596,-52.427553 28.94924,-29.71848 51.98284,-65.132644 6.95044,-7.819242 53.96235,-20.250916 61.89645,-15.676777 7.95193,4.584416 23.21662,27.164214 23.21662,27.164214 -16.09204,-7.687214 -34.56197,-8.603272 -36.46662,-6.164214 -3.89833,4.992129 -16.01302,17.592441 -14.75,20.75 0,0 26.24195,44.137401 20.90076,48.846191 -5.51244,4.85977 -36.67339,2.97701 -52.12077,3.2296 -19.04121,0.31135 -56.81287,2.66248 -59.40194,-1.97224 z"
           id="path11" />
      </g>
    </g>
  </g>
</svg>
