<?xml version="1.0" encoding="UTF-8" standalone="no"?>
<!-- Created with Inkscape (http://www.inkscape.org/) -->

<svg
   width="175.5397"
   height="588.18945"
   viewBox="0 0 175.5397 588.18945"
   version="1.1"
   id="svg1"
   xmlns="http://www.w3.org/2000/svg"
   xmlns:svg="http://www.w3.org/2000/svg">
  <defs
     id="defs1" />
  <g
     id="layer1"
     transform="translate(602.14637,-1594.926)">
    <g
       id="g23">
      <path
         style="fill:#383838;fill-opacity:1;stroke:none;stroke-width:1.18425;stroke-linecap:round;stroke-linejoin:round;stroke-dasharray:none;stroke-opacity:1"
         d="m -511.48731,2056.8145 c 12.41539,-1.6554 14.2397,-3.9892 21.54072,-3.9681 6.8476,0.02 13.34462,3.4464 20.18098,3.839 8.63474,0.4958 17.2283,-1.9065 25.87724,-1.8994 5.34766,0 15.99802,1.2007 15.99802,1.2007 0,0 2.72185,-426.1344 0.23876,-433.9975 -2.48306,-7.8631 -32.22978,-27.1546 -58.76616,-27.0628 -25.87102,0.089 -47.25607,5.0019 -53.8208,21.7122 -3.6649,9.3288 -1.13626,86.7301 5.17165,169.4611 9.36272,122.7962 23.57959,270.7148 23.57959,270.7148 z"
         id="path34" />
      <g
         id="g21">
        <path
           style="fill:#3e2d06;fill-opacity:1;stroke:none;stroke-linecap:round;stroke-linejoin:round;stroke-opacity:1"
           d="m -504.16714,2051.3168 c -0.8231,17.1413 1.43132,45.3463 -4.94974,52.3259 -6.38106,6.9796 -82.9513,39.0342 -88.56602,45.9558 -5.61472,6.9216 -4.33187,10.0905 -3.45246,14.6842 l 169.09312,-22.4563 c -2.70155,-28.0347 -4.8991,-36.3157 0,-91.2168 -41.18945,-6.2144 -55.84256,-2.4472 -72.1249,0.7072 z"
           id="path19" />
        <path
           style="fill:#322505;fill-opacity:1;stroke:none;stroke-linecap:round;stroke-linejoin:round;stroke-opacity:1"
           d="m -434.0139,2121.8643 c 1.09813,11.2507 11.86206,30.9053 1.0139,52.5671 l -162.00684,8.684 c -4.09213,-2.8083 -8.16058,-13.9977 -6.90929,-24.2421 45.36964,-4.3568 31.9379,2.9568 167.90223,-37.009 z"
           id="path20" />
        <path
           style="fill:#322505;fill-opacity:1;stroke:none;stroke-linecap:round;stroke-linejoin:round;stroke-opacity:1"
           d="m -481.66274,2047.736 c 2.45114,20.0399 -5.16471,45.4566 -20.15554,69.5034 24.87788,-22.892 31.32736,-48.1084 37.9494,-69.8594 -6.37323,-0.2724 -12.30451,-0.1537 -17.79386,0.356 z"
           id="path21" />
      </g>
    </g>
  </g>
</svg>
