<?xml version="1.0" encoding="UTF-8" standalone="no"?>
<!-- Created with Inkscape (http://www.inkscape.org/) -->

<svg
   width="138.32646"
   height="577.32471"
   viewBox="0 0 138.32646 577.32471"
   version="1.1"
   id="svg1"
   xmlns="http://www.w3.org/2000/svg"
   xmlns:svg="http://www.w3.org/2000/svg">
  <defs
     id="defs1" />
  <g
     id="layer1"
     transform="translate(325.77197,-1600.6067)">
    <g
       id="g24">
      <g
         id="g8"
         transform="matrix(-2.9805044,0,0,2.9805044,1170.674,104.1171)"
         style="display:inline">
        <path
           style="fill:#322505;fill-opacity:1;stroke-width:0.6;stroke-linecap:round;stroke-linejoin:round"
           d="m 457.14453,684.12581 c -2.59657,1.83924 -1.76776,10.16467 2.47488,11.66727 h 38.18377 c 3.71673,0 5.93332,-9.28078 2.74004,-12.81632 -3.70929,-4.10685 -36.85775,-3.48411 -43.39869,1.14905 z"
           id="path6" />
        <path
           style="fill:#3e2d06;fill-opacity:1;stroke-width:0.6;stroke-linecap:round;stroke-linejoin:round"
           d="m 457.14453,684.12581 c 8.13173,-13.43503 7.07843,-30.14886 9.90686,-29.79531 2.82843,0.35355 19.6844,-1.93198 22.15927,1.25 2.47487,3.18198 0.0799,20.76425 8.07928,25.94884 -17.23122,-0.45311 -31.17463,-0.34046 -40.14541,2.59647 z"
           id="path7" />
        <path
           style="fill:#322505;fill-opacity:1;stroke-width:0.6;stroke-linecap:round;stroke-linejoin:round"
           d="m 483.94351,654.27879 c 1.10253,5.883 3.54535,19.7924 7.28517,24.7963 -0.59757,-3.99408 -4.55416,-17.08454 -3.8259,-24.39319 -1.1487,-0.26361 -2.30342,-0.35017 -3.45927,-0.40311 z"
           id="path8" />
      </g>
      <path
         style="fill:#383838;fill-opacity:1;stroke:none;stroke-width:1.18425;stroke-linecap:round;stroke-linejoin:round;stroke-dasharray:none;stroke-opacity:1"
         d="m -294.57491,2062.4951 c 12.41539,-1.6554 14.23969,-3.9892 21.54072,-3.9681 6.84759,0.02 13.34461,3.4464 20.18098,3.839 8.63473,0.4958 17.22829,-1.9065 25.87724,-1.8994 5.34765,0 15.99801,1.2007 15.99801,1.2007 0,0 2.72185,-426.1344 0.23877,-433.9975 -2.48307,-7.8631 -32.22978,-27.1546 -58.76616,-27.0628 -25.87103,0.089 -47.25607,5.002 -53.82081,21.7122 -3.66489,9.3288 -1.13625,86.7302 5.17166,169.4611 9.36271,122.7962 23.57959,270.7148 23.57959,270.7148 z"
         id="path34-8" />
    </g>
  </g>
</svg>
