<?xml version="1.0" encoding="UTF-8" standalone="no"?>
<!-- Created with Inkscape (http://www.inkscape.org/) -->

<svg
   width="223.97327"
   height="477.02002"
   viewBox="0 0 223.97327 477.02002"
   version="1.1"
   id="svg1"
   xmlns="http://www.w3.org/2000/svg"
   xmlns:svg="http://www.w3.org/2000/svg">
  <defs
     id="defs1" />
  <g
     id="layer1"
     transform="translate(755.58727,-1265.1143)">
    <path
       id="path16-7-8"
       style="fill:#383838;fill-opacity:1;stroke:none;stroke-width:3.94751;stroke-linecap:round;stroke-linejoin:round;stroke-dasharray:none;stroke-opacity:1"
       d="m -734.21942,1265.1142 c 0,0 -17.45781,81.0013 -20.13856,121.6551 -2.6748,40.5636 -0.83348,82.5533 4.05761,123.4974 1.20904,9.4241 3.61006,22.5373 4.77175,33.8842 1.06494,10.4018 0.64104,19.557 2.01073,31.3039 6.79673,58.291 11.79657,103.7441 15.8632,162.7849 4.13933,3.2195 112.50202,4.427 113.24753,3.6816 1.26673,-1.2668 0.75545,-3.6378 8.32272,-52.4893 7.56729,-48.8516 14.69762,-218.4441 43.39878,-296.9888 68.74926,-64.3964 2.50038,-126.4402 -1.20281,-127.329 z" />
  </g>
</svg>
